Coordinates
version=1
nRows=17
nColumns=33
inDegrees=yes

Units are S.I. units (second, meters, Newtons, ...)
Angles are in degrees.

endheader
time	ground_thorax_rot_x	ground_thorax_rot_y	ground_thorax_rot_z	ground_thorax_tx	ground_thorax_ty	ground_thorax_tz	clav_prot_r	clav_elev_r	scapula_abduction_r	scapula_elevation_r	scapula_upward_rot_r	scapula_winging_r	shoulder_elv_r	plane_of_elev_r	axial_rot_r	elbow_flexion_r	pro_sup_r	wrist_flex_r	wrist_dev_r	clav_prot_l	clav_elev_l	scapula_abduction_l	scapula_elevation_l	scapula_upward_rot_l	scapula_winging_l	shoulder_elv_l	plane_of_elev_l	axial_rot_l	elbow_flexion_l	pro_sup_l	wrist_flex_l	wrist_dev_l
      8.54000000	    -41.51448475	      3.22858024	     -5.31791678	   -174.75279808	    894.36714866	     -3.43306526	     13.21405665	    -45.00000000	     44.18095798	    -45.00000000	    -45.00000000	    626.18303055	   1699.29922486	    144.86441820	    179.99999979	    732.71423134	     67.61429540	     29.77874040	     13.27432836	     14.81150745	     41.66431511	    -41.76047898	    -45.00000000	    -34.52759548	    807.16761313	  -2976.30236078	    138.69913782	    163.33063862	     13.16050951	     48.56053935	      6.39150169	    -23.61932220
      8.55000000	    -41.53578734	      3.26655986	     -5.18683445	   -171.65954261	    895.52249110	     -3.33926775	     13.16659962	    -45.00000000	     44.25676403	    -45.00000000	    -45.00000000	    626.06773877	   1699.77918104	    144.43551388	    179.99999979	    732.99923529	     67.46568611	     29.60008468	     13.10618125	     14.56669910	     41.65894340	    -41.96575725	    -45.00000000	    -33.93524792	    807.34818367	  -2976.19940991	    138.69726404	    163.56317845	     13.14550062	     48.71433993	      6.35431499	    -23.63553526
      8.56000000	    -41.57039802	      3.21754901	     -4.96208354	   -168.48224758	    896.51849514	     -3.24883275	     13.14513029	    -45.00000000	     44.41258220	    -45.00000000	    -45.00000000	    626.15049240	   1700.29727214	    144.30910328	    179.99999979	    733.35881530	     67.27880174	     29.48154623	     12.91188428	     14.98314658	     41.84533011	    -42.21264664	    -45.00000000	    -33.70586862	    807.56976364	  -2975.97272040	    138.60289356	    163.77347189	     13.21548870	     48.75086299	      6.25987117	    -23.62147387
      8.57000000	    -41.57769799	      3.17985795	     -4.71127726	   -165.22031138	    897.31779151	     -3.15866786	     13.08054931	    -45.00000000	     44.46381747	    -45.00000000	    -45.00000000	    625.98711342	   1700.70250269	    143.84359408	    179.99999979	    733.52809310	     67.07354138	     29.22794060	     12.74587981	     14.45888568	     41.75346499	    -42.41972894	    -45.00000000	    -33.13021829	    807.69278529	  -2975.89434985	    138.60305784	    164.22132901	     13.15450789	     48.69320321	      6.27212347	    -23.63965438
      8.58000000	    -41.58494870	      3.14700346	     -4.43015646	   -161.88164233	    897.87948690	     -3.06671020	     13.00149082	    -45.00000000	     44.46082741	    -45.00000000	    -45.00000000	    625.88690794	   1701.15367387	    143.46246068	    179.99999979	    733.75928364	     66.83480184	     28.97700170	     12.54957751	     14.36627499	     41.79362041	    -42.69113138	    -45.00000000	    -32.56202695	    807.89536969	  -2975.83538243	    138.57028523	    164.46634637	     13.11920629	     48.52763831	      6.27525479	    -23.64544717
      8.59000000	    -41.61858343	      3.07432895	     -4.17957451	   -158.45082769	    898.16800123	     -2.97131698	     12.87727100	    -45.00000000	     44.58983805	    -45.00000000	    -45.00000000	    625.91516179	   1701.52506372	    143.17935789	    179.99999979	    733.97577721	     66.56741349	     28.75254813	     12.36325437	     14.31655821	     41.86679250	    -42.96494598	    -45.00000000	    -32.06090593	    808.01037739	  -2975.79805165	    138.62506032	    164.70433681	     13.07134748	     48.25310157	      6.30964972	    -23.67185852
      8.60000000	    -41.62844509	      2.91868285	     -3.84618781	   -154.93795678	    898.14559399	     -2.87344561	     12.79209717	    -45.00000000	     44.64521397	    -45.00000000	    -45.00000000	    626.00057000	   1701.90510851	    142.94158366	    179.99999979	    734.15615097	     66.27396319	     28.52834708	     12.19828637	     14.25227222	     41.93212717	    -43.07443571	    -45.00000000	    -31.55072243	    808.02827788	  -2975.70703919	    138.64556680	    164.95501072	     13.02501799	     47.85814352	      6.34172347	    -23.68138412
      8.61000000	    -41.62559230	      2.75032068	     -3.45319793	   -151.33710585	    897.78150240	     -2.77509189	     12.65482727	    -45.00000000	     44.62492893	    -45.00000000	    -45.00000000	    626.08242808	   1702.21229711	    142.64740243	    179.99999979	    734.23468591	     65.95273530	     28.31096495	     12.09801110	     14.17069211	     41.87842717	    -43.34969824	    -45.00000000	    -31.42132476	    808.08684242	  -2975.61830046	    138.54052953	    165.41995948	     12.91460044	     47.34785793	      6.37407943	    -23.64805539
      8.62000000	    -41.62027580	      2.64667024	     -3.13671433	   -147.64630075	    897.04865931	     -2.67967656	     12.67888914	    -45.00000000	     44.68379368	    -45.00000000	    -45.00000000	    626.21623481	   1702.49855381	    142.40390910	    179.99999979	    734.32730006	     65.58677983	     27.95889976	     11.88702662	     14.32105635	     42.13415963	    -43.51349712	    -45.00000000	    -30.78859653	    808.21254470	  -2975.64180037	    138.44019810	    165.59767669	     12.82161036	     46.68045087	      6.56356893	    -23.73493931
      8.63000000	    -41.61236360	      2.46770007	     -2.72735310	   -143.86899985	    895.92771345	     -2.59091753	     12.37156019	    -45.00000000	     44.66570295	    -45.00000000	    -45.00000000	    626.58247602	   1702.79396096	    142.43587099	    179.99999979	    734.54695480	     65.14616283	     27.71313945	     11.70269550	     14.96341735	     42.55536614	    -43.86545086	    -45.00000000	    -30.52280329	    808.41910444	  -2975.68953030	    138.36305570	    165.51058490	     12.74621684	     45.65369581	      6.72339050	    -23.77428250
      8.64000000	    -41.55448568	      2.25574018	     -2.26678992	   -140.00696156	    894.40699772	     -2.51218861	     12.37519700	    -45.00000000	     44.68533969	    -45.00000000	    -45.00000000	    626.81439471	   1702.98297647	    142.29854779	    179.99999979	    734.55272303	     64.65292287	     27.44756323	     11.63443567	     15.17678002	     42.70000978	    -44.16561040	    -45.00000000	    -30.26728152	    808.41040133	  -2975.79202887	    138.35700126	    165.74819991	     12.61889660	     44.27047052	      6.93822505	    -23.80145640
      8.65000000	    -41.53128025	      2.05104221	     -1.85319300	   -136.05066011	    892.47718879	     -2.44618334	     12.29651587	    -45.00000000	     44.59880676	    -45.00000000	    -45.00000000	    627.13334768	   1703.12983918	    142.12786013	    179.99999979	    734.58267967	     64.08993314	     27.17841513	     11.58215156	     15.21459593	     42.83882229	    -44.38675076	    -45.00000000	    -29.86808626	    808.40035533	  -2975.87255027	    138.36922249	    165.89471670	     12.38944361	     42.60810761	      7.26119987	    -23.83552689
      8.66000000	    -41.44121351	      1.82663942	     -1.42888334	   -132.00509267	    890.14226281	     -2.39586171	     12.13482864	    -45.00000000	     44.60493345	    -45.00000000	    -45.00000000	    627.46793392	   1703.21737493	    142.01722983	    179.99999979	    734.54986104	     63.45766526	     26.90503066	     11.57093843	     15.23420082	     43.01565690	    -44.56622989	    -45.00000000	    -29.35907810	    808.38392486	  -2976.13974162	    138.37794559	    165.81424850	     12.15846191	     40.63028023	      7.64252584	    -23.86111328
      8.67000000	    -41.32782361	      1.58346725	     -0.96800513	   -127.86499571	    887.41197311	     -2.36375223	     11.96163225	    -45.00000000	     44.54080828	    -45.00000000	    -45.00000000	    627.81161668	   1703.22815902	    141.84446292	    179.99999979	    734.42728728	     62.75255107	     26.63611069	     11.63192458	     15.53970719	     43.16257288	    -44.80051589	    -45.00000000	    -29.00278300	    808.31540962	  -2976.40949574	    138.44344510	    165.82755929	     11.92090777	     38.17771209	      8.05586764	    -23.84809047
      8.68000000	    -41.19138490	      1.32918413	     -0.50916123	   -123.62998825	    884.30708314	     -2.35253166	     12.07730947	    -45.00000000	     44.54536531	    -45.00000000	    -45.00000000	    628.09736541	   1703.11901971	    141.63924336	    179.99999979	    734.27470446	     61.98861261	     26.29542178	     11.67727643	     14.81730943	     43.14716643	    -44.75397573	    -45.00000000	    -28.65967910	    808.06630829	  -2976.55172794	    138.26811308	    166.39717109	     11.57631722	     35.95915576	      8.65834156	    -23.88223896
      8.69000000	    -41.02414908	      1.49711406	     -0.69672882	   -119.32491261	    880.87671132	     -2.36418044	     11.80815295	    -45.00000000	     44.93689257	    -45.00000000	    -43.42988228	    628.44408188	   1702.77786969	    141.57000528	    179.99999979	    733.85384006	     61.23735275	     26.07045789	     11.96086631	     14.34427946	     43.28614373	    -44.87087608	    -45.00000000	    -27.54103023	    808.11149891	  -2977.00497852	    138.27406127	    166.56535860	     11.50162376	     33.76014824	      9.15873222	    -23.89524618
      8.70000000	    -40.82002907	      1.44782134	     -0.47947509	   -114.97937041	    877.17486344	     -2.39863430	     11.65325744	    -45.00000000	     44.95737924	    -45.00000000	    -42.39923272	    629.03513831	   1702.41508076	    141.86090399	    179.99999979	    733.62088856	     60.30461745	     25.92245747	     12.22830407	     14.73715456	     43.54979894	    -45.00000000	    -45.00000000	    -27.20059027	    807.89314415	  -2977.26095910	    138.16245311	    166.49888904	     11.21327233	     31.21867693	      9.58005286	    -23.77799413
